<?xml version="1.0" encoding="UTF-8"?>
<svg id="_레이어_1" data-name="레이어 1" xmlns="http://www.w3.org/2000/svg" viewBox="0 0 300 300">
  <defs>
      <mask id="typo-mask">
        <g>
          <!-- 회색알맹 -->
          <path class="cls-4" d="M127.05,276.89c.74.55,1.64.86,2.49,1.24,5.87,2.66,12.05,6.77,18.4,7.85,9.61,1.64,19.36,3.28,29.06,2.34,20.22-1.96,41.12-12.83,54.97-27.68,12.73-13.65,20.42-27.89,24.63-43.66,2.17-8.13,3.26-14.7,3.66-23.93.68-15.58-.62-32.21-7.13-46.39-6.51-14.17-19.02-33.38-33.79-38.39-16.21-6.65-20.74-6.92-38.22-8.26-8.52-.65-24.87.97-32.83,4.06-7.32,2.85-21.78,10.78-27.03,16.62-22.78,25.37-29.74,55.99-29.49,90.09.09,12.53,5.33,31.77,12.13,42.3,5.91,9.16,14.25,17.16,23.15,23.81Z"/>
          <!-- ㅅ 원본 -->
          <path class="cls-1" d="M26.47,101.31c5.2,1.91,10.78,2.76,16.28,3.23,6.41.55,12.89.52,19.3-.04,5.83-.52,11.66-1.46,17.22-3.31s11.23-3.89,16.7-6.2c7.85-3.31,15.46-7.3,21.98-12.84,5.92-5.02,10.69-11.18,15.12-17.51,6.32-9.03,12.25-18.32,18.52-27.38,3.71-5.36,7.79-11.99,5.72-18.76-.78-2.55-2.32-4.93-4.55-6.42-2.62-1.75-5.77-1.71-8.61-.52-5.43,2.27-9.98,7.12-13.12,11.98s-5.32,10.74-6.62,16.55c-2.89,12.94-2.19,26.54-.51,39.6,1.86,14.44,5.42,28.64,10.61,42.25s11.94,26.6,20.17,38.6c2,2.92,4.1,5.78,6.27,8.58.59.76,1.64-.31,1.06-1.06-17.31-22.38-29.22-48.84-34.69-76.59-2.58-13.06-4.09-26.73-3.06-40.04.89-11.57,4-23.9,12.29-32.48,3.89-4.03,10.96-9.71,16.32-4.91s3.51,12.55.28,18.08-7.03,10.44-10.51,15.64c-2.75,4.11-5.47,8.24-8.24,12.33-4.34,6.4-8.84,12.78-14.4,18.2s-12.15,9.55-19.14,12.9c-4.73,2.26-9.61,4.2-14.54,5.99-5.33,1.94-10.65,3.79-16.24,4.79-5.99,1.07-12.1,1.5-18.18,1.49s-12.12-.44-18.04-1.64c-2.37-.48-4.71-1.1-6.98-1.93-.91-.33-1.3,1.12-.4,1.45h0Z"/>
          <!-- ㅇ 선 원본 -->
          <path class="cls-1" d="M129.57,183.97c20.11,10.82,46.04,5.57,61.61-10.7,7.77-8.13,13.06-18.56,15.4-29.53,1.17-5.47,1.67-11.12,1.33-16.7s-1.58-11.61-4.93-16.34c-6.67-9.44-20.04-12.04-30.9-12.17s-21.81,2.69-31.61,7.51-19.07,12.03-26.2,20.63c-7.58,9.14-13.21,19.76-17.08,30.96-3.95,11.41-6.07,23.43-6.82,35.47-.79,12.66-.26,25.62,2.63,38,2.7,11.6,7.75,22.47,15.45,31.59,7.05,8.35,16.03,15.09,25.9,19.75s20.71,7.35,31.67,7.65c11.78.32,23.62-1.99,34.52-6.42,22.16-9,39.89-26.23,50.38-47.65,10.06-20.55,13.85-44.26,10.2-66.87-3.28-20.29-12.68-40.35-28.58-53.77-3.83-3.23-7.99-6.06-12.43-8.39-1.71-.9-3.23,1.69-1.51,2.59,17.78,9.33,29.9,26.44,36,45.27,6.59,20.35,6.31,42.41.26,62.85-6.5,21.93-19.91,41.82-39.09,54.56s-41.74,17.97-63.66,13.12c-20.35-4.5-39.03-17.4-49.07-35.85-5.94-10.91-8.65-23.31-9.56-35.62s-.4-23.8,1.57-35.48c3.73-22.2,13.23-44.11,30.58-59.02,15.9-13.67,38.09-21.38,58.91-16.36,5.38,1.3,10.83,3.43,14.63,7.61s5.26,9.91,5.7,15.38c.86,10.72-1.39,21.77-6.19,31.38s-12.21,17.88-21.67,23.06c-9.37,5.13-20.51,7.26-31.11,5.74-5.17-.74-10.18-2.35-14.78-4.83-1.7-.91-3.22,1.67-1.51,2.59h0Z"/>
        </g>
      </mask>

      <style>
        
        .cls-1 { <!-- ㅅ,ㅇ원본 -->
          fill: white;
        }

        @keyframes typo-ani1{
          from{stroke-dashoffset: 1000}
          to{stroke-dashoffset:0}
        }
        .cls-2 { <!-- ㅅ마스크 -->
          fill: none;
          stroke: #0d2b98;
          stroke-linecap: round;
          stroke-linejoin: round;
          stroke-width: 2px;
          stroke-dasharray: 1000;
          stroke-dashoffset: 0;
          animation: typo-ani1 2s linear;
        }

        
        @keyframes typo-ani2{
          from{stroke-dashoffset:1700}
          to{stroke-dashoffset:0}
        }
        .cls-3 { <!-- ㅇ마스크 -->
          fill: none;
          stroke: #0d2b98;
          stroke-linecap: round;
          stroke-linejoin: round;
          stroke-width: 3.5px;
          stroke-dasharray: 1700;
          stroke-dashoffset: 0;
          animation: typo-ani2 1.5s linear;
        }

        
        @keyframes typo-ani3{
          from{stroke-dashoffset:4000}
          to{stroke-dashoffset:0}
        }
        .cls-4 { <!-- 알맹 -->
          fill: white;
        }
        .cls-5 { <!-- 알맹마스크 -->
          fill: none;
          stroke: #d4d4d4;
          stroke-linecap: round;
          stroke-linejoin: round;
          stroke-width: 30px;
          stroke-dasharray: 4000;
          stroke-dashoffset: 0;
          animation: typo-ani3 2.5s linear;
        }

      </style>
    </defs>
  

    <!-- 마스크모양을 적용할 부분(두껍게 칠한 패스선) -->
    <g mask="url(#typo-mask)" id="mask">
      <!-- 회색원 -->
      <path class="cls-5" d="M136.3,302.07c-1.53,2.12.29-.14.77-.64,1.63-1.7-2.78,1.47.7-.63.8-.49,5.08-2.59,2.59-1.6,2.19-.87,4.51-1.48,6.81-1.96.93-.19,1.88-.37,2.82-.5-3.12.44,1.44-.03,1.68-.04,12.04-.71,24.06,1.23,35.99,2.53s23.63,1.65,35.5-.3c11.21-1.84,23.67-6.3,31.21-15.2,10.01-11.84,7.7-29.2-5.77-37.4-11.41-6.95-26.01-4.56-38.44-2.39-23.43,4.09-45.3,9.51-68.93,10.46-11.21.45-23.65.23-34.12-1.28-1.01-.14-2.04-.3-3.04-.52l-1.5-.35c-1.61-.47-1.96-.58-1.05-.34,1.24-1.34,3.77,6.77,3.26,4.03.58,3.11-.31,5.45-2.14,8.02l-1.2.9,1.06-.6c-.33,1.21-1.92.44.59,0s4.55-.86,6.52-1.09c23.4-2.67,46.97-1.9,70.47-1.62s48.25-.21,71.91-5.04c12.73-2.6,28.89-7.12,28.31-23.34s-17.76-22.53-31.13-23.85-26.14.09-38.94.73c-13.72.68-27.42,1.58-41.13,2.39-14.03.83-28.07,1.56-42.12,1.86-6.52.14-13.07.32-19.59-.05-2.96-.17-4.63-.27-6.64-.76-1.44-.35-2.88-.66-4.3-1.09-.85-.24-1.7-.52-2.53-.83,1.18.57,1.16.46-.06-.33l5.38,5.38-.59-.94,2.05,7.57-.03-1.31-2.05,7.57c-2.23,4.06-3.29,2.32-.87,1.54,1-.32,2.15-1.08,3.08-1.51,1.71-.79,1.34-.59,3.53-1.36,4.03-1.41,8.15-2.53,12.33-3.4,7.79-1.63,15.31-2.22,24.4-2.6,19.21-.81,38.46-.92,57.68-1.66,19.67-.76,39.35-1.49,59.01-2.46,10.94-.54,21.95-3.16,28.04-13.21,5.12-8.44,4.19-19.65-.89-27.89-12.46-20.21-36.59-15.38-56.28-12.39-19.91,3.01-39.82,6.04-59.77,8.83-19.14,2.68-38.52,5.12-57.92,7.12-4.6.47-9.19.93-13.8,1.35-2,.18-4,.38-6,.41-.66,0-1.39-.1-2.05-.03-1.13-.07-.91-.02.66.18l-1.27-.29c-1.03.22-2.08-1.6.12.04,1.2.9,1.15.79,2.09,2.42,1.04,1.81.73,2.05.93,3.84.21,1.91.79-1.41-.06-.01s.39-.5.47-.59c-.46.52-.98,1.01-1.43,1.51.13-.14,2.54-1.48.55-.57.92-.42,2-.67,2.98-.92s2.05-.46,3.09-.64c-.68.12-2.42.22.7-.06,2.2-.2,4.4-.36,6.6-.49,5.04-.28,10.08-.36,15.12-.41,9.57-.1,19.13-.27,28.68-.99,20.32-1.52,40.49-4.67,60.62-7.81,9.58-1.49,19.15-3.02,28.76-4.31,9.04-1.21,19.73-1.43,28.55-5.68,9.94-4.79,16.42-15.57,14.94-26.61s-10.54-18.45-20.85-20.63c-9.8-2.07-19.68-.86-29.49.36s-19.71,2.46-29.57,3.69c-20.04,2.5-40.08,5-60.12,7.49-10.18,1.27-20.37,2.54-30.55,3.81-4.09.51-8.22,1.24-12.34,1.46-1.14.06-5.75-.43-2.33.12-1.44-.23-.72-.76-.4-.05,1.66.49,2.94,1.59,3.83,3.3l.96,6.27c-.33,1.47-1.55,1.81-.51,1.5,1.69-.5,3.48-2.05,5.14-2.82-1.45.67,1.07-.43,1.11-.44,1.06-.39,2.14-.75,3.22-1.09,2.17-.68,4.37-1.26,6.59-1.77,8.53-1.98,17.87-3.27,26.16-4.34,19.72-2.54,39.54-4.2,59.35-5.9,10-.86,20.08-1.44,30.01-2.94,9.78-1.48,21.35-7.12,24.31-17.4,3.75-13.02-6.51-22.65-18.39-24.84-9.46-1.74-19.02-2.29-28.61-1.71s-19.88,2.13-29.76,3.56c-8.45,1.23-15.43,2.28-24.56,2.7-4.15.19-8.31.21-12.46-.05-1.18-.07-2.38-.15-3.55-.28.7.08,2.39.55-.63-.12-.76-.17-1.51-.34-2.25-.56-2.51-.73,2.61,1.62-1.34-.62-7.05-4-16.4-1.67-20.52,5.38s-1.69,16.51,5.38,20.52c18.35,10.41,43.7,5.44,63.45,2.61,9.64-1.38,17.04-2.64,27.13-3.19,4.7-.26,9.41-.29,14.11.03,2.87.19,3.07.19,5.64.66.98.18,2.21.68,3.19.68.8.24.76.2-.11-.12-1.64-.57-2.95-1.65-3.94-3.25l-2.05-7.57,2.78-6.54c1.08-.78.87-.71-.63.22,2.75-.61-2.05.41-2.12.44-4.33,1.27,2.37-.08-2.12.37-1.16.12-2.31.22-3.47.33-7.79.72-15.59,1.38-23.38,2.04-14.94,1.28-29.88,2.57-44.78,4.27-14.38,1.64-28.98,3.25-43.14,6.33-14.24,3.09-32.42,9.48-37.64,24.6-2.76,8-.96,17.02,5.29,22.93,5.55,5.25,13.59,7.16,21.06,6.76,13.95-.75,28.05-3.41,41.91-5.14,30.23-3.77,60.45-7.54,90.68-11.3,7.04-.88,13.96-1.58,21.07-1.43.96.02,3.41.85.45,0l1.26.29c1.65.54,1.66.49.02-.17l1.08.62c-.85-.48-1.54-1.12-2.06-1.95-1.55-2.29-1.2-3.86-.78-6.05.34-1.77,2.9-1.14-.07-.64,2.51-.42-2.37.39-2.37.38-4.79,1.17,1.34-.12-1.5.26-1.54.2-3.09.36-4.63.54-8.38,1.02-16.75,2.19-25.1,3.44-28.34,4.23-55.68,9.29-84.37,10.16-14.83.45-29.92-.42-44.59,2.24-14.66,2.66-28.84,14.51-27.34,30.71s16.63,24.14,31.96,23.16c14.9-.96,29.82-2.94,44.64-4.75,30.17-3.7,60.23-8.17,90.28-12.72,3.92-.59,7.83-1.19,11.75-1.78,1.31-.2,2.61-.4,3.92-.59-.72.11,5.56-.76,3.12-.47,1.72-.21,3.46-.36,5.2-.41-.29,0,5.28.12,2.82-.14,1.12.12,2.17.61,3.27.78-.82-.44-.6-.31.65.39-1.31-1.09-1.34-1.06-.09.11l-.74-1.02c.83,1.52.91,1.46.25-.18.13.33.59,2.36.67,2.4-2.66-1.37,2.62-7.29,3.2-6.46.19.26-4.31.87-2.46.64,2.02-.25-2.93.12-2.58.1-4.58.24-9.17.39-13.75.58-29.37,1.24-58.74,2.59-88.13,3.14-14.11.27-28.16.81-42.11,3.13-5.62.93-11.19,2.23-16.59,4.07-7.18,2.44-16.11,5.46-21.47,11.17-7.95,8.46-6.04,21.82,3.92,27.69,7.07,4.17,16.19,5.38,24.17,6.15,14.1,1.36,28.64.27,42.76-.36,29.72-1.33,59.38-3.89,89.13-4.52,2.89-.06,5.79-.14,8.69-.07,1.58.04,3.21.06,4.78.28-2.79-.4,2.14.62,2.17.63,2.85.72,1.38.44.7.21l1.33.78c-4.55-3.27-4.04-8.54,1.53-15.82l1.23-.5c-1,.32-2,.6-3.02.85-2.1.56-4.23,1.06-6.36,1.53-13.06,2.88-25.61,3.94-39.44,4.39-28.52.93-57.07-1.31-85.57.67-13.04.9-30.4.72-40.32,10.69-5.89,5.91-7.75,14.56-5.1,22.37,2.98,8.78,10.93,14.48,19.77,16.42,28.86,6.34,60.37,2.84,89.12-2.13,13.73-2.37,27.93-6.75,41.28-7.52,1.43-.08,2.85-.14,4.28-.12.58,0,3.94.19,1.48.02,2.72.18.93.57-.17-.63-1.48-1.61-.87-3.94-.91-5.86-.02-1.06.83-.9,1.04-1.63l-1.07,1.07c1.06-.71.84-.58-.65.4-3.26,1.82-3.96,2.1-7.08,3.03-11.36,3.39-24.5,2.34-37.68.85-14.62-1.65-29.08-3.56-43.73-1.2-13.01,2.1-23.89,8.42-31.62,19.11-4.75,6.57-1.13,16.71,5.38,20.52,7.57,4.43,15.76,1.2,20.52-5.38h0Z"/>
      <!-- ㅅ 선 -->
      <path class="cls-2" d="M26.47,101.31c5.2,1.91,10.78,2.76,16.28,3.23,6.41.55,12.89.52,19.3-.04,5.83-.52,11.66-1.46,17.22-3.31s11.23-3.89,16.7-6.2c7.85-3.31,15.46-7.3,21.98-12.84,5.92-5.02,10.69-11.18,15.12-17.51,6.32-9.03,12.25-18.32,18.52-27.38,3.71-5.36,7.79-11.99,5.72-18.76-.78-2.55-2.32-4.93-4.55-6.42-2.62-1.75-5.77-1.71-8.61-.52-5.43,2.27-9.98,7.12-13.12,11.98s-5.32,10.74-6.62,16.55c-2.89,12.94-2.19,26.54-.51,39.6,1.86,14.44,5.42,28.64,10.61,42.25s11.94,26.6,20.17,38.6c2,2.92,4.1,5.78,6.27,8.58.59.76,1.64-.31,1.06-1.06-17.31-22.38-29.22-48.84-34.69-76.59-2.58-13.06-4.09-26.73-3.06-40.04.89-11.57,4-23.9,12.29-32.48,3.89-4.03,10.96-9.71,16.32-4.91s3.51,12.55.28,18.08-7.03,10.44-10.51,15.64c-2.75,4.11-5.47,8.24-8.24,12.33-4.34,6.4-8.84,12.78-14.4,18.2s-12.15,9.55-19.14,12.9c-4.73,2.26-9.61,4.2-14.54,5.99-5.33,1.94-10.65,3.79-16.24,4.79-5.99,1.07-12.1,1.5-18.18,1.49s-12.12-.44-18.04-1.64c-2.37-.48-4.71-1.1-6.98-1.93-.91-.33-1.3,1.12-.4,1.45h0Z"/>
      <!-- ㅇ 선 -->
      <path class="cls-3" d="M129.57,183.97c20.11,10.82,46.04,5.57,61.61-10.7,7.77-8.13,13.06-18.56,15.4-29.53,1.17-5.47,1.67-11.12,1.33-16.7s-1.58-11.61-4.93-16.34c-6.67-9.44-20.04-12.04-30.9-12.17s-21.81,2.69-31.61,7.51-19.07,12.03-26.2,20.63c-7.58,9.14-13.21,19.76-17.08,30.96-3.95,11.41-6.07,23.43-6.82,35.47-.79,12.66-.26,25.62,2.63,38,2.7,11.6,7.75,22.47,15.45,31.59,7.05,8.35,16.03,15.09,25.9,19.75s20.71,7.35,31.67,7.65c11.78.32,23.62-1.99,34.52-6.42,22.16-9,39.89-26.23,50.38-47.65,10.06-20.55,13.85-44.26,10.2-66.87-3.28-20.29-12.68-40.35-28.58-53.77-3.83-3.23-7.99-6.06-12.43-8.39-1.71-.9-3.23,1.69-1.51,2.59,17.78,9.33,29.9,26.44,36,45.27,6.59,20.35,6.31,42.41.26,62.85-6.5,21.93-19.91,41.82-39.09,54.56s-41.74,17.97-63.66,13.12c-20.35-4.5-39.03-17.4-49.07-35.85-5.94-10.91-8.65-23.31-9.56-35.62s-.4-23.8,1.57-35.48c3.73-22.2,13.23-44.11,30.58-59.02,15.9-13.67,38.09-21.38,58.91-16.36,5.38,1.3,10.83,3.43,14.63,7.61s5.26,9.91,5.7,15.38c.86,10.72-1.39,21.77-6.19,31.38s-12.21,17.88-21.67,23.06c-9.37,5.13-20.51,7.26-31.11,5.74-5.17-.74-10.18-2.35-14.78-4.83-1.7-.91-3.22,1.67-1.51,2.59h0Z"/>
    </g>
</svg>