<?xml version="1.0" encoding="UTF-8"?>
<svg id="_레이어_1" data-name="레이어 1" xmlns="http://www.w3.org/2000/svg" viewBox="0 0 1920 400">
  <defs>
    <style>
      .cls-1 {
        fill: white;
        fill-opacity: 0.3;
        stroke: #181d61;
        stroke-opacity: 25%;
        stroke-width: 1;
        stroke-dasharray: 1800;
        stroke-dashoffset: 1800;
        animation: effectText 5s linear forwards;
      }
      @keyframes effectText{
        from{
          fill: transparent;
          stroke-dashoffset: 1800;
        }to{
          stroke-dashoffset: 0;
        }
      }
    </style>
  </defs>
  <path class="cls-1" d="M557.52,233.67l-34.89,26.21c-17.84,12.24-31.16,18.36-39.97,18.36-1.36,0-2.03-.69-2.03-2.06,0-2.18,1.13-3.49,3.39-3.95,6.89-1.22,12.76-3.16,17.61-5.83,8.47-4.55,22.24-14.27,41.32-29.15l44.71-36.14c8.58-7.44,13.83-11.16,15.75-11.16,2.85,0,5.98,1.56,9.4,4.67,6.53-4.9,12.33-7.34,17.39-7.34,7.65,0,11.48,4.06,11.48,12.18,0,12.13-9.82,28.65-29.47,49.57-19.98,21.14-36.13,31.71-48.44,31.71-11.52,0-17.28-5.95-17.28-17.86,0-6.23,3.67-15.96,11.01-29.21ZM598.33,213.14c-23.03,19.87-34.55,36.05-34.55,48.55,0,5.36,2.59,8.03,7.79,8.03,8.47,0,21.68-10.11,39.63-30.34-9.48-2.23-14.22-8.24-14.22-18.05,0-2.56.45-5.29,1.36-8.19ZM614.93,234.01c4.18-3.91,8.35-9.22,12.53-15.93,4.63-7.71,6.95-13.86,6.95-18.44,0-4.24-1.86-6.37-5.59-6.37-5.53,0-11.09,3.44-16.68,10.31-5.59,6.88-8.38,13.11-8.38,18.69,0,6.26,3.73,10.17,11.18,11.74Z"/>
  <path class="cls-1" d="M734.97,204.46c-.57-3.67-.85-5.9-.85-6.68,0-3,3.64-7.7,10.92-14.1,7.28-6.4,12.28-9.6,14.99-9.6s3.9,1.17,3.9,3.51c0,2-1.41,5.34-4.23,10.01,12.76,0,19.14,5,19.14,14.99,0,7.89-8.21,20.46-24.64,37.73-16.43,17.27-24.64,26.96-24.64,29.07,0,2,1.05,3.11,3.17,3.33l5.5-.17c1.55,0,2.33.92,2.33,2.74,0,2.29-3.28,3.44-9.82,3.44-8.36,0-12.53-3.67-12.53-11.02s4.16-16.25,12.49-27.04c5.18-6.79,12.88-15.19,23.12-25.2,8.33-8.12,12.49-12.57,12.49-13.35,0-1.67-.95-2.5-2.85-2.5-1.68,0-4.87.64-9.58,1.92-4.7,1.28-7.51,2.31-8.4,3.09-52.5,49.07-87.9,73.6-106.18,73.6-1.36,0-2.03-.74-2.03-2.23,0-1.95,1.52-3.2,4.57-3.78,3.73-.66,8.64-2.39,14.73-5.16,9.15-4,22.8-13.49,40.98-28.47,16.14-13.21,28.62-24.59,37.43-34.13Z"/>
  <path class="cls-1" d="M908.02,169.24l-60.97,2.34c-3.39,0-5.08-.89-5.08-2.67,0-1.45,2.77-2.56,8.3-3.34,7.79-1.22,18.74-2.28,32.86-3.17,15.69-.89,26.7-1.72,33.02-2.5l24.22-28.54c12.98-15.13,20.83-22.7,23.54-22.7,3.39,0,5.08,2.12,5.08,6.34,0,4.56-10.28,19.53-30.82,44.9,11.85-.78,21.68-1.17,29.47-1.17,5.19,0,7.79,1,7.79,3,0,2.23-6.27,3.73-18.8,4.51l-25.74.83-37.77,46.49c-23.82,30.55-35.73,48.77-35.73,54.66,0,2.78,1.92,4.2,5.76,4.25,3.84.06,5.76,1,5.76,2.83,0,2.18-2.48,3.26-7.45,3.26-10.05,0-15.07-4.01-15.07-12.02,0-6.34,3.27-15.41,9.82-27.21l14.73-24.37-50.13,38.89c-20.89,16.25-36.97,24.37-48.27,24.37-1.36,0-2.03-.74-2.03-2.23,0-1.95,1.13-3.2,3.39-3.78,3.84-.78,9.65-2.72,17.44-5.83,7.57-3.89,24.39-15.89,50.47-35.99,19.31-14.77,31.44-24.38,36.41-28.83,8.92-8,18.85-18.77,29.81-32.33Z"/>
  <path class="cls-1" d="M1010.28,204.29l-57.24,46.4c-22.8,18.36-40.19,27.54-52.16,27.54-1.36,0-2.03-.74-2.03-2.23,0-1.83,1.47-3.09,4.4-3.78,4.4-.89,9.26-2.56,14.56-5,8.92-3.78,25.8-15.67,50.64-35.69,20.32-16.23,37.03-30.35,50.13-42.36,17.73-16.23,51.26-51.69,100.6-106.39,6.32-7.01,11.29-10.52,14.9-10.52,4.18,0,6.27,2.06,6.27,6.18,0,2.78-1.07,5.79-3.22,9.01l-28.45,31.55-33.36,36.39-68.42,77.94c8.02-.11,12.03,4.56,12.03,14.02,0,17.25-12.76,43.56-38.28,78.95-26.42,36.5-47.48,54.75-63.17,54.75-4.74,0-8.52-1.78-11.35-5.34-2.82-3.56-4.23-7.73-4.23-12.52,0-5.45,1.86-12.46,5.59-21.03,5.87-13.35,21.96-36.88,48.27-70.6l54.53-67.26ZM1002.48,278.73c-12.53-.22-18.8-6.06-18.8-17.53-47.19,57.86-70.79,93.36-70.79,106.49,0,4.89,2.2,7.34,6.61,7.34,10.39,0,25.85-13.35,46.4-40.06,16.6-21.59,28.79-40.34,36.58-56.25ZM1004.69,273.22c4.97-10.35,7.45-19.25,7.45-26.71,0-5.23-2.09-7.84-6.27-7.84-3.73,0-7.4,3.01-11.01,9.01-3.28,5.56-4.91,10.4-4.91,14.52,0,7.34,3.95,11.02,11.86,11.02h2.88Z"/>
  <path class="cls-1" d="M1121.85,233.67l-34.89,26.21c-17.84,12.24-31.16,18.36-39.97,18.36-1.36,0-2.03-.69-2.03-2.06,0-2.18,1.13-3.49,3.39-3.95,6.89-1.22,12.76-3.16,17.61-5.83,8.47-4.55,22.24-14.27,41.32-29.15l44.71-36.14c8.58-7.44,13.83-11.16,15.75-11.16,2.85,0,5.98,1.56,9.4,4.67,6.53-4.9,12.33-7.34,17.39-7.34,7.65,0,11.48,4.06,11.48,12.18,0,12.13-9.82,28.65-29.47,49.57-19.98,21.14-36.13,31.71-48.44,31.71-11.52,0-17.28-5.95-17.28-17.86,0-6.23,3.67-15.96,11.01-29.21ZM1162.66,213.14c-23.03,19.87-34.55,36.05-34.55,48.55,0,5.36,2.59,8.03,7.79,8.03,8.47,0,21.68-10.11,39.63-30.34-9.48-2.23-14.22-8.24-14.22-18.05,0-2.56.45-5.29,1.36-8.19ZM1179.26,234.01c4.18-3.91,8.35-9.22,12.53-15.93,4.63-7.71,6.95-13.86,6.95-18.44,0-4.24-1.86-6.37-5.59-6.37-5.53,0-11.09,3.44-16.68,10.31-5.59,6.88-8.38,13.11-8.38,18.69,0,6.26,3.73,10.17,11.18,11.74Z"/>
  <path class="cls-1" d="M1295.07,224.32l-41.83,31.04c-22.58,15.25-39.12,22.87-49.62,22.87-1.36,0-2.03-.65-2.03-1.95,0-2.06,2.09-3.41,6.27-4.06,4.74-.67,10.22-2.67,16.43-6.01,7.45-3.9,20.16-12.42,38.11-25.56,13.1-9.35,26.93-19.71,41.49-31.07,16.82-24.83,39.97-51.78,69.44-80.85,32.74-32.3,54.7-48.44,65.88-48.44,5.19,0,7.79,2.73,7.79,8.18,0,14.02-16.69,36.44-50.07,67.26-21.09,19.36-44.04,38.11-68.85,56.25-5.75,4.24-12.91,13.22-21.48,26.95-8.91,14.06-13.36,23.99-13.36,29.79,0,2.79,3.1,4.18,9.31,4.18,1.47,0,2.2.86,2.2,2.6,0,2.16-2.96,3.25-8.87,3.25-9.33,0-13.99-4.67-13.99-14.02s4.4-22.59,13.21-40.39ZM1438.01,85.46c-4.4,0-21.82,16.99-52.27,50.95-28.98,32.52-47.42,54.85-55.32,66.99,73.75-59.14,110.63-97.56,110.63-115.27,0-1.78-1.02-2.67-3.05-2.67Z"/>
  <path class="cls-1" d="M1416.46,268.06c0,3,3.32,4.5,9.96,4.5,1.49,0,2.23.92,2.23,2.75,0,2.18-3.75,3.26-11.26,3.26-8.53,0-12.79-4.01-12.79-12.02,0-9.35,12.59-28.88,37.77-58.58l-46.23,37.22c-27.32,22.03-47.14,33.05-59.44,33.05-1.36,0-2.03-.74-2.03-2.23,0-2.06,1.13-3.32,3.39-3.78,7.11-1.33,13.61-3.61,19.48-6.83,7.34-4,22.92-15.27,46.74-33.81l51.82-42.81c2.26-.78,5.31-1.17,9.14-1.17s5.76,2.17,5.76,6.5c0,4.66-9.09,17.24-27.27,37.73-18.18,20.49-27.27,32.57-27.27,36.23ZM1491.32,152.55c-5.42,0-8.13-2.73-8.13-8.18,0-4.56,2.77-8.68,8.3-12.35,4.97-3.34,9.94-5.01,14.9-5.01,5.87,0,8.81,3.17,8.81,9.51,0,4.56-2.94,8.46-8.81,11.68-5.08,2.89-10.11,4.34-15.07,4.34Z"/>
  <path class="cls-1" d="M555.52,52.42c-10.61-5.12-23.94-7.69-39.97-7.69-25.18,0-56.96,5.12-95.35,15.36-38.73,10.35-58.09,20.09-58.09,29.21,0,4.67,1.87,7.01,5.6,7.01,1.47,0,3.45-.5,5.93-1.5,38.21-15.47,76.76-25.87,115.65-31.21-18.08,18.06-31.53,32.16-40.34,42.3l-54.58,59.68-25.29-1.17c-5.89-.22-8.83,1.73-8.83,5.84s7.02,7.4,21.07,9.51c-33.91,40.05-59.79,76.88-104.66,100.98-2.16,1.16-4.34,2.28-6.53,3.36-47.14,23.19-98.97,30.39-148.28,17.27-5.06-1.35-21.49-6.73-26.26-8.91C55.94,274.31,29.5,250.12.55,217.77c21.2,26,45.88,49.4,74.33,67.17,45.12,28.17,101.3,32.92,153.79,21.94,5.88-1.23,11.7-2.74,17.43-4.52,14.81-4.61,29.12-10.82,42.68-18.35,1.93-1.07,3.83-2.16,5.7-3.28,38.65-22.98,65.87-48.24,94.79-82.24,3.52-4.15,7.05-8.29,10.57-12.44.52-.61,3.38-4.96,4.22-4.96,36.48,0,72.05-7.41,106.73-22.22,43.82-18.83,65.73-43.9,65.73-75.2,0-14.15-7-24.56-21-31.25ZM551.44,115.7c-13.1,14.16-33.94,25.69-62.51,34.61-23.15,7.24-46.98,11.7-71.49,13.37l44.9-48.82c27-29.98,40.5-46.53,40.5-49.65,0-1-.34-2.23-1.02-3.68,7.9-.67,14.17-1,18.8-1,31.39,0,47.08,7.86,47.08,23.57,0,9.25-5.42,19.78-16.26,31.59Z"/>
  <path class="cls-1" d="M1601.98,235.54c11.78-14.66,17.68-26.69,17.68-36.09,0-8.12-3.83-12.18-11.48-12.18-5.07,0-10.86,2.45-17.39,7.34-3.42-3.11-6.55-4.67-9.4-4.67-1.92,0-7.17,3.72-15.75,11.16l-44.71,36.14c-19.08,14.88-32.86,24.6-41.32,29.15-4.85,2.67-10.72,4.61-17.61,5.83-2.26.46-3.39,1.77-3.39,3.95,0,1.37.68,2.06,2.03,2.06,8.81,0,22.13-6.12,39.97-18.36l34.89-26.21c-7.34,13.24-11.01,22.98-11.01,29.21,0,11.91,5.76,17.86,17.28,17.86,12.3,0,28.45-10.57,48.44-31.71,1.66-1.76,3.24-3.49,4.75-5.19,101.94,21.3,156.33-.47,206.37-19.33,78.37-29.54,118.69-78.7,118.69-78.7,0,0-26.7,28.15-65.46,49-22.7,12.21-49.92,24.04-76.32,32.67-89.47,29.23-165.85,13.97-176.24,8.07ZM1549.54,269.72c-5.2,0-7.79-2.68-7.79-8.03,0-12.5,11.52-28.68,34.55-48.55-.91,2.9-1.36,5.63-1.36,8.19,0,9.81,3.7,18.65,13.18,20.88-17.95,20.23-30.12,27.52-38.59,27.52ZM1581.72,222.27c0-5.58,2.79-11.82,8.38-18.69,5.59-6.87,11.15-10.31,16.68-10.31,3.73,0,5.59,2.13,5.59,6.37,0,4.58-2.32,10.73-6.95,18.44-4.18,6.71-4.21,12.71-8.38,16.62-7.45-1.57-15.33-6.17-15.33-12.43Z"/>
</svg>